<?xml version="1.0" standalone="no"?>
<!DOCTYPE svg PUBLIC "-//W3C//DTD SVG 20010904//EN"
 "http://www.w3.org/TR/2001/REC-SVG-20010904/DTD/svg10.dtd">
<svg version="1.0" xmlns="http://www.w3.org/2000/svg"
 width="512.000000pt" height="512.000000pt" viewBox="0 0 512.000000 512.000000"
 preserveAspectRatio="xMidYMid meet">

<g transform="translate(0.000000,512.000000) scale(0.100000,-0.100000)"
fill="#000000" stroke="none">
<path d="M2185 4997 c-228 -76 -421 -335 -515 -692 -41 -153 -52 -257 -48
-437 l3 -156 -50 20 c-253 102 -500 141 -736 119 -203 -19 -344 -63 -470 -147
-180 -119 -233 -268 -155 -431 19 -39 39 -74 45 -77 22 -14 10 -33 -27 -44
-64 -20 -141 -71 -172 -114 -81 -111 -79 -249 5 -423 144 -299 533 -578 926
-665 l56 -13 -76 -98 c-92 -118 -162 -234 -213 -352 -163 -376 -156 -774 15
-947 82 -82 183 -108 303 -76 34 9 65 16 68 16 3 0 6 -19 6 -42 1 -155 77
-267 213 -315 81 -28 247 -23 360 11 282 84 567 304 742 571 43 66 82 124 85
128 4 5 22 -16 41 -45 200 -318 501 -563 804 -654 116 -34 280 -39 362 -11
136 48 212 160 213 315 0 23 3 42 6 42 3 0 34 -7 68 -16 76 -20 167 -14 222
14 54 27 125 105 156 172 109 229 59 632 -117 956 -47 86 -132 209 -196 284
-21 24 -37 46 -35 48 2 1 40 12 85 22 388 93 754 360 896 655 84 174 86 312 5
423 -31 43 -108 94 -172 114 -44 13 -46 19 -18 58 126 177 78 371 -124 499
-309 195 -811 197 -1242 5 -8 -3 -9 40 -6 148 5 177 -7 287 -48 443 -86 324
-257 574 -458 668 -148 69 -290 35 -390 -94 -20 -26 -39 -48 -42 -48 -3 0 -26
26 -51 57 -61 76 -130 114 -218 118 -38 2 -83 -2 -106 -9z m174 -422 c79 -135
110 -160 201 -160 90 0 122 25 196 153 31 53 66 107 77 119 18 20 22 21 46 9
35 -19 119 -109 159 -173 46 -72 99 -200 129 -313 19 -71 26 -130 30 -235 6
-156 -4 -252 -43 -426 -31 -134 -28 -172 17 -224 35 -39 88 -60 132 -51 17 4
76 33 132 66 175 103 352 172 515 201 175 31 415 12 554 -42 59 -24 136 -76
136 -92 0 -7 -38 -56 -85 -110 -101 -116 -117 -145 -117 -207 0 -106 57 -155
225 -191 140 -30 157 -37 157 -63 0 -48 -71 -165 -149 -249 -212 -223 -481
-343 -845 -377 -65 -6 -130 -16 -145 -21 -55 -21 -101 -84 -101 -139 0 -56 25
-94 113 -168 257 -216 428 -501 478 -796 22 -133 -4 -336 -43 -336 -7 0 -60
21 -118 46 -57 24 -124 49 -148 55 -58 13 -117 -4 -158 -45 -50 -50 -57 -95
-43 -253 11 -116 11 -136 -2 -144 -40 -25 -195 8 -315 69 -239 121 -428 319
-564 592 -29 56 -58 121 -66 142 -30 86 -82 128 -159 128 -44 0 -86 -21 -114
-56 -11 -15 -52 -92 -91 -172 -157 -324 -321 -506 -574 -634 -120 -61 -275
-94 -315 -69 -13 8 -13 28 -2 144 14 158 7 203 -43 253 -41 41 -100 58 -158
45 -24 -6 -91 -31 -148 -55 -58 -25 -111 -46 -118 -46 -23 0 -45 72 -50 168
-17 325 167 694 480 960 97 82 123 124 115 185 -12 90 -66 125 -214 138 -368
32 -660 161 -874 386 -78 84 -149 201 -149 249 0 26 17 33 157 63 168 36 225
85 225 192 0 61 -26 105 -127 219 -41 46 -75 90 -75 97 0 16 77 68 136 92 139
54 379 73 554 42 164 -29 340 -98 516 -202 56 -33 117 -62 135 -65 45 -7 118
31 142 73 26 45 25 81 -7 223 -23 100 -29 158 -33 290 -7 243 24 396 123 596
46 94 132 201 188 235 28 17 32 17 48 2 9 -8 44 -62 77 -118z"/>
<path d="M2479 3557 c-62 -41 -69 -69 -69 -275 0 -200 7 -232 55 -270 80 -63
192 -37 231 55 10 24 14 83 14 215 0 154 -3 188 -18 218 -25 50 -75 80 -132
80 -32 0 -58 -7 -81 -23z"/>
<path d="M2274 2909 c-41 -12 -91 -69 -99 -113 -10 -50 8 -93 75 -185 33 -45
60 -85 60 -89 0 -4 -35 -18 -77 -31 -159 -46 -203 -84 -203 -177 0 -86 56
-145 139 -146 21 0 81 14 134 31 53 17 98 31 101 31 2 0 6 -56 8 -124 3 -108
6 -128 24 -153 65 -86 183 -86 248 0 18 25 21 45 24 153 2 68 7 124 11 124 4
0 47 -14 97 -31 49 -16 108 -30 130 -30 87 -1 144 57 144 145 0 93 -42 130
-202 178 -43 13 -78 26 -78 30 0 4 27 45 60 90 73 99 88 142 71 197 -15 50
-68 97 -120 106 -69 11 -116 -19 -192 -125 -35 -49 -66 -90 -69 -90 -3 0 -34
41 -69 90 -84 117 -132 144 -217 119z"/>
<path d="M1565 2885 c-50 -18 -92 -63 -101 -110 -8 -46 18 -117 53 -145 28
-22 353 -130 390 -130 94 0 168 98 143 189 -18 67 -60 94 -237 150 -201 63
-200 63 -248 46z"/>
<path d="M3325 2844 c-93 -30 -181 -62 -194 -72 -46 -34 -64 -69 -65 -121 -1
-53 18 -88 65 -123 50 -38 86 -34 272 26 95 30 185 65 200 76 34 27 61 99 53
144 -12 61 -61 106 -131 119 -21 5 -80 -10 -200 -49z"/>
<path d="M2079 2007 c-42 -28 -235 -290 -249 -337 -36 -127 113 -237 224 -165
35 23 226 287 243 337 43 126 -107 240 -218 165z"/>
<path d="M2895 2014 c-64 -33 -95 -106 -72 -172 17 -50 207 -313 243 -337 107
-70 245 24 226 153 -6 43 -204 317 -251 349 -40 27 -102 30 -146 7z"/>
</g>
</svg>
