<?xml version="1.0" encoding="UTF-8"?>
<!DOCTYPE svg PUBLIC "-//W3C//DTD SVG 1.1//EN" "http://www.w3.org/Graphics/SVG/1.1/DTD/svg11.dtd">
<svg xmlns="http://www.w3.org/2000/svg" version="1.1" width="512px" height="512px" style="shape-rendering:geometricPrecision; text-rendering:geometricPrecision; image-rendering:optimizeQuality; fill-rule:evenodd; clip-rule:evenodd" xmlns:xlink="http://www.w3.org/1999/xlink">
<g><path style="opacity:0.978" fill="#252525" d="M 220.5,-0.5 C 225.5,-0.5 230.5,-0.5 235.5,-0.5C 245.247,2.75018 251.413,9.41684 254,19.5C 253.144,55.0349 251.31,90.5349 248.5,126C 248.536,128.094 248.869,130.094 249.5,132C 255.167,135.833 260.833,139.667 266.5,143.5C 278.813,126.875 287.979,108.541 294,88.5C 298.15,74.7482 301.15,60.7482 303,46.5C 304.756,40.0362 308.923,37.8696 315.5,40C 317.906,41.622 319.739,43.7886 321,46.5C 328.601,62.4704 334.101,79.1371 337.5,96.5C 352.098,98.7045 364.432,94.3712 374.5,83.5C 386.969,68.8369 395.802,52.1703 401,33.5C 412.256,28.794 416.923,32.4607 415,44.5C 411.492,55.6977 406.825,66.3644 401,76.5C 401.187,98.4462 394.354,117.78 380.5,134.5C 389.844,138.488 399.177,138.322 408.5,134C 412.327,132.254 415.993,130.254 419.5,128C 430.497,126.464 433.997,130.964 430,141.5C 409.456,156.598 387.956,158.265 365.5,146.5C 356.165,152.002 346.165,155.835 335.5,158C 331.813,166.713 327.813,175.38 323.5,184C 334.696,192.028 346.029,199.862 357.5,207.5C 374.648,194.476 392.314,193.476 410.5,204.5C 438.441,192.06 459.441,172.227 473.5,145C 484.83,141.014 489.497,145.014 487.5,157C 485.803,189.926 475.47,219.76 456.5,246.5C 467.033,248.56 477.033,247.06 486.5,242C 491.118,239.05 495.452,235.716 499.5,232C 504.444,230.593 508.444,231.759 511.5,235.5C 511.5,238.167 511.5,240.833 511.5,243.5C 503.071,252.227 493.071,258.727 481.5,263C 482.453,264.955 483.787,266.622 485.5,268C 491.029,269.781 496.529,271.614 502,273.5C 503.483,276.702 503.817,280.036 503,283.5C 502.5,285.333 501.333,286.5 499.5,287C 481.866,289.518 470.2,282.351 464.5,265.5C 457.44,264.49 450.44,263.157 443.5,261.5C 429.932,271.703 415.099,279.703 399,285.5C 389.509,323.129 380.176,360.796 371,398.5C 369.642,405.091 371.475,410.591 376.5,415C 398.846,426.027 407.179,443.693 401.5,468C 413.24,478.285 425.073,488.452 437,498.5C 438.82,501.753 438.987,505.087 437.5,508.5C 435.566,509.11 433.899,510.11 432.5,511.5C 430.5,511.5 428.5,511.5 426.5,511.5C 413.016,499.495 399.182,487.828 385,476.5C 383.017,472.041 383.35,467.708 386,463.5C 389.383,446.761 383.216,435.261 367.5,429C 356.116,419.727 351.949,407.894 355,393.5C 364.686,353.423 374.686,313.423 385,273.5C 386.214,271.951 387.714,270.785 389.5,270C 422.154,262.014 444.987,242.514 458,211.5C 461.507,202.987 464.173,194.321 466,185.5C 451.659,200.835 434.826,212.668 415.5,221C 407.719,225.514 401.719,223.847 397.5,216C 383.951,210.85 372.785,214.017 364,225.5C 360.633,231.404 358.633,237.737 358,244.5C 353.667,248.5 349.333,248.5 345,244.5C 343.978,242.298 343.478,239.965 343.5,237.5C 344.111,232.163 345.445,226.996 347.5,222C 347.355,221.228 347.022,220.561 346.5,220C 310.658,195.246 274.992,170.246 239.5,145C 238.167,144.333 236.833,144.333 235.5,145C 228.726,147.369 221.892,149.536 215,151.5C 208.894,150.296 206.561,146.629 208,140.5C 209.856,137.152 212.689,135.152 216.5,134.5C 221.18,133.107 225.846,131.607 230.5,130C 231.249,128.266 231.749,126.433 232,124.5C 234.09,90.4826 236.09,56.4826 238,22.5C 235.003,16.6802 230.503,14.6802 224.5,16.5C 221.944,17.5434 219.777,19.2101 218,21.5C 212.667,34.1667 207.333,46.8333 202,59.5C 199.454,62.1856 196.287,63.1856 192.5,62.5C 175.697,60.289 160.197,54.6223 146,45.5C 151.025,64.3635 162.858,77.0302 181.5,83.5C 186.792,85.757 188.625,89.757 187,95.5C 183.029,104.609 179.195,113.776 175.5,123C 184.711,132.257 190.044,143.424 191.5,156.5C 192.389,162.926 189.722,166.592 183.5,167.5C 180.889,167.444 178.722,166.444 177,164.5C 175.991,158.434 174.658,152.434 173,146.5C 167.863,134.883 159.029,130.717 146.5,134C 140.551,135.973 135.217,138.973 130.5,143C 127.406,143.652 124.406,143.318 121.5,142C 99.8681,132.689 81.3681,119.189 66,101.5C 67.9751,119.122 74.6417,134.788 86,148.5C 90.3679,152.533 94.3679,156.866 98,161.5C 98.7185,164.407 98.2185,167.074 96.5,169.5C 85.8865,177.634 73.8865,182.801 60.5,185C 67.2221,188.573 74.3887,190.073 82,189.5C 88.201,189.411 94.3677,188.911 100.5,188C 105.823,186.391 111.156,184.891 116.5,183.5C 121.045,180.374 126.045,179.207 131.5,180C 148.971,186.245 166.971,189.912 185.5,191C 188.233,191.904 190.567,193.404 192.5,195.5C 213.244,221.751 234.577,247.584 256.5,273C 264.809,269.451 273.475,266.451 282.5,264C 293.828,263.5 305.162,263.333 316.5,263.5C 321.93,263.161 327.264,263.661 332.5,265C 336.379,269.298 336.379,273.631 332.5,278C 316.567,279.288 300.567,279.955 284.5,280C 267.263,283.571 255.096,293.404 248,309.5C 233.551,345.065 218.551,380.398 203,415.5C 198.585,421.571 192.752,425.738 185.5,428C 179.152,428.935 172.818,429.935 166.5,431C 152.141,437.406 148.475,447.739 155.5,462C 156.278,464.39 157.445,466.557 159,468.5C 159.755,471.303 159.422,473.97 158,476.5C 144.039,488.544 129.872,500.21 115.5,511.5C 113.833,511.5 112.167,511.5 110.5,511.5C 109.101,510.11 107.434,509.11 105.5,508.5C 104.013,505.087 104.18,501.753 106,498.5C 117.969,489.031 129.469,479.031 140.5,468.5C 130.725,446.062 136.392,428.896 157.5,417C 166.869,414.739 176.203,412.406 185.5,410C 188.531,407.441 190.698,404.274 192,400.5C 196.264,390.541 200.431,380.541 204.5,370.5C 198.4,367.701 192.234,365.034 186,362.5C 167.29,369.447 148.457,369.947 129.5,364C 124.51,362.335 120.01,359.835 116,356.5C 105.501,362.061 94.3339,363.894 82.5,362C 70.6737,360.17 59.6737,356.17 49.5,350C 46.8333,345.667 46.8333,341.333 49.5,337C 51.3659,336.015 53.3659,335.515 55.5,335.5C 64.8944,339.353 74.5611,342.52 84.5,345C 90.5692,345.804 96.5692,345.471 102.5,344C 96.4949,335.824 91.6616,326.991 88,317.5C 76.5826,310.951 66.2492,302.951 57,293.5C 53.003,282.964 56.503,278.464 67.5,280C 82.4044,295.789 100.404,306.456 121.5,312C 126.526,313.086 131.526,313.753 136.5,314C 123.927,290.814 118.094,265.981 119,239.5C 119.108,233.891 121.941,231.224 127.5,231.5C 129.926,231.404 132.093,232.07 134,233.5C 151.271,264.771 175.771,288.605 207.5,305C 214.5,308.04 221.667,310.54 229,312.5C 232.239,302.182 237.406,293.015 244.5,285C 223.544,259.041 202.21,233.375 180.5,208C 162.87,205.64 145.536,201.807 128.5,196.5C 120.295,199.568 111.962,202.235 103.5,204.5C 99.2504,224.862 87.5837,239.029 68.5,247C 56.8383,249.178 53.005,244.678 57,233.5C 70.2348,229.098 79.4015,220.431 84.5,207.5C 60.2107,206.524 40.8773,196.358 26.5,177C 16.1351,171.46 7.13512,164.293 -0.5,155.5C -0.5,152.833 -0.5,150.167 -0.5,147.5C 2.55598,143.759 6.55598,142.593 11.5,144C 17.2079,149.377 23.2079,154.377 29.5,159C 44.5097,168.6 60.1764,169.933 76.5,163C 52.4958,134.658 43.3291,102.158 49,65.5C 53.0524,63.0577 57.2191,62.891 61.5,65C 75.862,92.5284 97.1954,112.695 125.5,125.5C 135.944,118.721 147.278,116.054 159.5,117.5C 162.498,110.843 165.498,104.177 168.5,97.5C 139.187,81.2893 125.353,56.2893 127,22.5C 128.756,16.0362 132.923,13.8696 139.5,16C 146.715,26.5267 156.382,34.1934 168.5,39C 175.631,41.406 182.798,43.5727 190,45.5C 194.945,33.3333 200.278,21.3333 206,9.5C 209.977,4.7741 214.811,1.44077 220.5,-0.5 Z"/></g>
<g><path style="opacity:1" fill="#726256" d="M 224.5,16.5 C 225.777,17.6936 226.444,19.3603 226.5,21.5C 222.891,59.1463 219.557,96.813 216.5,134.5C 212.689,135.152 209.856,137.152 208,140.5C 206.561,146.629 208.894,150.296 215,151.5C 221.892,149.536 228.726,147.369 235.5,145C 236.833,144.333 238.167,144.333 239.5,145C 274.992,170.246 310.658,195.246 346.5,220C 347.022,220.561 347.355,221.228 347.5,222C 345.445,226.996 344.111,232.163 343.5,237.5C 343.478,239.965 343.978,242.298 345,244.5C 349.333,248.5 353.667,248.5 358,244.5C 358.633,237.737 360.633,231.404 364,225.5C 372.785,214.017 383.951,210.85 397.5,216C 401.719,223.847 407.719,225.514 415.5,221C 434.826,212.668 451.659,200.835 466,185.5C 464.173,194.321 461.507,202.987 458,211.5C 444.987,242.514 422.154,262.014 389.5,270C 387.714,270.785 386.214,271.951 385,273.5C 374.686,313.423 364.686,353.423 355,393.5C 351.949,407.894 356.116,419.727 367.5,429C 383.216,435.261 389.383,446.761 386,463.5C 383.35,467.708 383.017,472.041 385,476.5C 399.182,487.828 413.016,499.495 426.5,511.5C 406.167,511.5 385.833,511.5 365.5,511.5C 370.191,508.869 371.691,504.869 370,499.5C 360.333,489.833 350.667,480.167 341,470.5C 345.16,454.848 342.493,440.515 333,427.5C 322.548,417.349 310.048,413.183 295.5,415C 288.106,416.956 285.939,421.456 289,428.5C 290.594,430.297 292.594,431.297 295,431.5C 313.827,427.832 324.327,435.499 326.5,454.5C 325.11,461.476 324.277,468.476 324,475.5C 336.035,487.368 347.869,499.368 359.5,511.5C 333.833,511.5 308.167,511.5 282.5,511.5C 284.901,510.254 286.401,508.254 287,505.5C 287.667,487.833 287.667,470.167 287,452.5C 283.911,447.695 279.744,446.528 274.5,449C 273.299,449.903 272.465,451.069 272,452.5C 271.333,470.167 271.333,487.833 272,505.5C 272.599,508.254 274.099,510.254 276.5,511.5C 246.5,511.5 216.5,511.5 186.5,511.5C 198.438,500.063 210.272,488.396 222,476.5C 222.808,474.577 223.308,472.577 223.5,470.5C 217.295,451.768 222.961,438.268 240.5,430C 245.65,429.182 250.65,429.682 255.5,431.5C 260.5,431.167 263.167,428.5 263.5,423.5C 263.444,420.889 262.444,418.722 260.5,417C 239.511,409.903 223.011,415.737 211,434.5C 205.755,445.652 204.089,457.318 206,469.5C 196.333,479.167 186.667,488.833 177,498.5C 174.348,503.961 175.514,508.294 180.5,511.5C 158.833,511.5 137.167,511.5 115.5,511.5C 129.872,500.21 144.039,488.544 158,476.5C 159.422,473.97 159.755,471.303 159,468.5C 157.445,466.557 156.278,464.39 155.5,462C 148.475,447.739 152.141,437.406 166.5,431C 172.818,429.935 179.152,428.935 185.5,428C 192.752,425.738 198.585,421.571 203,415.5C 218.551,380.398 233.551,345.065 248,309.5C 255.096,293.404 267.263,283.571 284.5,280C 300.567,279.955 316.567,279.288 332.5,278C 336.379,273.631 336.379,269.298 332.5,265C 327.264,263.661 321.93,263.161 316.5,263.5C 290.02,242.53 263.353,221.697 236.5,201C 222.626,193.188 207.959,191.355 192.5,195.5C 190.567,193.404 188.233,191.904 185.5,191C 166.971,189.912 148.971,186.245 131.5,180C 126.045,179.207 121.045,180.374 116.5,183.5C 116.631,182.624 116.298,181.957 115.5,181.5C 108.632,178.239 102.299,174.239 96.5,169.5C 98.2185,167.074 98.7185,164.407 98,161.5C 94.3679,156.866 90.3679,152.533 86,148.5C 74.6417,134.788 67.9751,119.122 66,101.5C 81.3681,119.189 99.8681,132.689 121.5,142C 124.406,143.318 127.406,143.652 130.5,143C 135.217,138.973 140.551,135.973 146.5,134C 159.029,130.717 167.863,134.883 173,146.5C 174.658,152.434 175.991,158.434 177,164.5C 178.722,166.444 180.889,167.444 183.5,167.5C 189.722,166.592 192.389,162.926 191.5,156.5C 190.044,143.424 184.711,132.257 175.5,123C 179.195,113.776 183.029,104.609 187,95.5C 188.625,89.757 186.792,85.757 181.5,83.5C 182.496,83.5858 183.329,83.2524 184,82.5C 186.573,75.6918 189.406,69.0252 192.5,62.5C 196.287,63.1856 199.454,62.1856 202,59.5C 207.333,46.8333 212.667,34.1667 218,21.5C 219.777,19.2101 221.944,17.5434 224.5,16.5 Z"/></g>
<g><path style="opacity:1" fill="#5d4e46" d="M 224.5,16.5 C 230.503,14.6802 235.003,16.6802 238,22.5C 236.09,56.4826 234.09,90.4826 232,124.5C 231.749,126.433 231.249,128.266 230.5,130C 225.846,131.607 221.18,133.107 216.5,134.5C 219.557,96.813 222.891,59.1463 226.5,21.5C 226.444,19.3603 225.777,17.6936 224.5,16.5 Z"/></g>
<g><path style="opacity:1" fill="#8e8079" d="M 192.5,62.5 C 189.406,69.0252 186.573,75.6918 184,82.5C 183.329,83.2524 182.496,83.5858 181.5,83.5C 162.858,77.0302 151.025,64.3635 146,45.5C 160.197,54.6223 175.697,60.289 192.5,62.5 Z"/></g>
<g><path style="opacity:1" fill="#8f8079" d="M 330.5,112.5 C 330.876,122.625 330.209,132.625 328.5,142.5C 325.495,142.253 322.995,143.253 321,145.5C 318.226,155.609 314.392,165.276 309.5,174.5C 299.53,167.855 289.863,160.855 280.5,153.5C 296.921,129.759 308.421,103.759 315,75.5C 318.558,86.2885 321.224,97.2885 323,108.5C 324.883,111.024 327.383,112.358 330.5,112.5 Z"/></g>
<g><path style="opacity:1" fill="#716155" d="M 328.5,142.5 C 330.209,132.625 330.876,122.625 330.5,112.5C 348.964,116.31 365.464,112.31 380,100.5C 376.113,117.072 366.28,128.905 350.5,136C 343.318,138.794 335.985,140.961 328.5,142.5 Z"/></g>
<g><path style="opacity:1" fill="#8e7f79" d="M 96.5,169.5 C 102.299,174.239 108.632,178.239 115.5,181.5C 116.298,181.957 116.631,182.624 116.5,183.5C 111.156,184.891 105.823,186.391 100.5,188C 94.3677,188.911 88.201,189.411 82,189.5C 74.3887,190.073 67.2221,188.573 60.5,185C 73.8865,182.801 85.8865,177.634 96.5,169.5 Z"/></g>
<g><path style="opacity:1" fill="#5d4e46" d="M 316.5,263.5 C 305.162,263.333 293.828,263.5 282.5,264C 273.475,266.451 264.809,269.451 256.5,273C 234.577,247.584 213.244,221.751 192.5,195.5C 207.959,191.355 222.626,193.188 236.5,201C 263.353,221.697 290.02,242.53 316.5,263.5 Z"/></g>
<g><path style="opacity:1" fill="#8f8079" d="M 138.5,271.5 C 157.78,294.948 181.446,312.448 209.5,324C 213.722,325.638 218.055,326.805 222.5,327.5C 219.167,336.5 215.833,345.5 212.5,354.5C 171.02,341.902 146.353,314.235 138.5,271.5 Z"/></g>
<g><path style="opacity:1" fill="#716155" d="M 110.5,327.5 C 110.735,326.903 111.235,326.57 112,326.5C 123.931,329.773 136.098,331.273 148.5,331C 154.167,338 160.5,344.333 167.5,350C 143.294,355.217 124.294,347.717 110.5,327.5 Z"/></g>
<g><path style="opacity:1" fill="#272726" d="M 332.5,343.5 C 340.678,342.842 344.178,346.509 343,354.5C 340.774,358.861 337.274,360.361 332.5,359C 328.139,356.774 326.639,353.274 328,348.5C 329.025,346.313 330.525,344.646 332.5,343.5 Z"/></g>
<g><path style="opacity:1" fill="#272726" d="M 324.5,375.5 C 332.678,374.842 336.178,378.509 335,386.5C 332.774,390.861 329.274,392.361 324.5,391C 320.139,388.774 318.639,385.274 320,380.5C 321.025,378.313 322.525,376.646 324.5,375.5 Z"/></g>
<g><path style="opacity:1" fill="#262625" d="M 186.5,511.5 C 184.5,511.5 182.5,511.5 180.5,511.5C 175.514,508.294 174.348,503.961 177,498.5C 186.667,488.833 196.333,479.167 206,469.5C 204.089,457.318 205.755,445.652 211,434.5C 223.011,415.737 239.511,409.903 260.5,417C 262.444,418.722 263.444,420.889 263.5,423.5C 263.167,428.5 260.5,431.167 255.5,431.5C 250.65,429.682 245.65,429.182 240.5,430C 222.961,438.268 217.295,451.768 223.5,470.5C 223.308,472.577 222.808,474.577 222,476.5C 210.272,488.396 198.438,500.063 186.5,511.5 Z"/></g>
<g><path style="opacity:1" fill="#252525" d="M 365.5,511.5 C 363.5,511.5 361.5,511.5 359.5,511.5C 347.869,499.368 336.035,487.368 324,475.5C 324.277,468.476 325.11,461.476 326.5,454.5C 324.327,435.499 313.827,427.832 295,431.5C 292.594,431.297 290.594,430.297 289,428.5C 285.939,421.456 288.106,416.956 295.5,415C 310.048,413.183 322.548,417.349 333,427.5C 342.493,440.515 345.16,454.848 341,470.5C 350.667,480.167 360.333,489.833 370,499.5C 371.691,504.869 370.191,508.869 365.5,511.5 Z"/></g>
<g><path style="opacity:1" fill="#252525" d="M 282.5,511.5 C 280.5,511.5 278.5,511.5 276.5,511.5C 274.099,510.254 272.599,508.254 272,505.5C 271.333,487.833 271.333,470.167 272,452.5C 272.465,451.069 273.299,449.903 274.5,449C 279.744,446.528 283.911,447.695 287,452.5C 287.667,470.167 287.667,487.833 287,505.5C 286.401,508.254 284.901,510.254 282.5,511.5 Z"/></g>
<g><path style="opacity:0.814" fill="#6e5f53" d="M 105.5,508.5 C 107.434,509.11 109.101,510.11 110.5,511.5C 108.167,511.5 105.833,511.5 103.5,511.5C 104.167,510.5 104.833,509.5 105.5,508.5 Z"/></g>
<g><path style="opacity:0.847" fill="#6e5f54" d="M 437.5,508.5 C 438.167,509.5 438.833,510.5 439.5,511.5C 437.167,511.5 434.833,511.5 432.5,511.5C 433.899,510.11 435.566,509.11 437.5,508.5 Z"/></g>
</svg>
