<?xml version="1.0" encoding="UTF-8"?>
<!DOCTYPE svg PUBLIC "-//W3C//DTD SVG 1.1//EN" "http://www.w3.org/Graphics/SVG/1.1/DTD/svg11.dtd">
<svg xmlns="http://www.w3.org/2000/svg" version="1.1" width="512px" height="512px" style="shape-rendering:geometricPrecision; text-rendering:geometricPrecision; image-rendering:optimizeQuality; fill-rule:evenodd; clip-rule:evenodd" xmlns:xlink="http://www.w3.org/1999/xlink">
<g><path style="opacity:0.939" fill="#000000" d="M 511.5,248.5 C 511.5,258.167 511.5,267.833 511.5,277.5C 504.174,318.33 481.841,347.83 444.5,366C 440.91,367.53 437.243,368.864 433.5,370C 398.938,377.179 364.271,383.846 329.5,390C 326.146,397.877 322.646,405.71 319,413.5C 313.318,418.998 307.985,418.665 303,412.5C 302.833,411.167 302.667,409.833 302.5,408.5C 305.126,399.744 308.459,391.244 312.5,383C 299.375,362.585 286.375,342.085 273.5,321.5C 272.167,321.167 270.833,320.833 269.5,320.5C 262.181,321.184 254.848,321.684 247.5,322C 264.333,338.833 281.167,355.667 298,372.5C 301.759,378.551 300.592,383.385 294.5,387C 291.366,387.79 288.366,387.457 285.5,386C 268.667,369.167 251.833,352.333 235,335.5C 234.42,379.514 215.587,413.014 178.5,436C 150.566,450.49 121.233,454.657 90.5,448.5C 89.6667,447.5 88.8333,446.5 88,445.5C 87.3333,431.5 87.3333,417.5 88,403.5C 88.681,394.276 90.8477,385.443 94.5,377C 69.8537,372.007 47.8537,361.674 28.5,346C 18.6039,336.272 8.93719,326.438 -0.5,316.5C -0.5,313.833 -0.5,311.167 -0.5,308.5C 16.2992,289.192 35.6326,273.025 57.5,260C 47.2419,243.561 40.7419,225.728 38,206.5C 36.4247,181.526 36.0913,156.526 37,131.5C 37.3917,128.545 38.8917,126.378 41.5,125C 65.8333,124.333 90.1667,124.333 114.5,125C 135.534,127.177 154.867,134.01 172.5,145.5C 184.615,124.201 199.948,105.368 218.5,89C 222.333,86.2475 226.333,85.9142 230.5,88C 241.363,98.5293 251.863,109.363 262,120.5C 271.005,132.858 278.338,146.191 284,160.5C 290.548,154.476 297.715,149.309 305.5,145C 355.704,116.732 406.037,88.7322 456.5,61C 462.056,59.2219 465.89,61.0552 468,66.5C 482.84,127.224 497.34,187.891 511.5,248.5 Z M 356.5,329.5 C 364.136,310.058 372.469,290.892 381.5,272C 402.631,266.067 423.631,259.734 444.5,253C 449.712,247.963 449.712,242.963 444.5,238C 442.801,237.042 440.967,236.542 439,236.5C 422.846,240.704 406.846,245.371 391,250.5C 406.661,213.495 422.661,176.495 439,139.5C 442.157,131.268 439.49,126.268 431,124.5C 427.518,124.906 424.851,126.572 423,129.5C 413.924,150.648 404.591,171.648 395,192.5C 389.333,180.5 383.667,168.5 378,156.5C 373.05,151.208 368.05,151.208 363,156.5C 361.101,160.136 361.101,163.803 363,167.5C 370.371,183.742 377.871,199.909 385.5,216C 373.962,242.241 362.295,268.408 350.5,294.5C 346.155,290.153 342.155,285.486 338.5,280.5C 356.763,256.535 365.096,229.368 363.5,199C 363.333,193.5 363.167,188 363,182.5C 362.5,178 360,175.5 355.5,175C 333.026,173.164 311.026,175.164 289.5,181C 295.731,173.565 303.065,167.565 311.5,163C 358.667,136.5 405.833,110 453,83.5C 467.121,139.652 480.455,195.985 493,252.5C 495.722,293.08 479.889,323.914 445.5,345C 439.282,347.942 432.949,350.609 426.5,353C 397.249,359.118 367.915,364.451 338.5,369C 340.775,363.149 343.608,357.649 347,352.5C 364.167,347 381.333,341.5 398.5,336C 403.732,333.367 405.565,329.201 404,323.5C 402.011,320.335 399.178,318.668 395.5,318.5C 382.438,321.965 369.438,325.632 356.5,329.5 Z M 224.5,109.5 C 253.168,132.156 269.335,161.823 273,198.5C 274.584,202.248 277.417,204.248 281.5,204.5C 292.358,199.492 303.691,195.992 315.5,194C 325.161,193.5 334.828,193.334 344.5,193.5C 348.606,235.444 333.273,267.944 298.5,291C 276.507,302.429 253.174,306.429 228.5,303C 188.833,263.333 149.167,223.667 109.5,184C 103.95,180.427 99.1164,181.26 95,186.5C 94.1834,189.964 94.5167,193.298 96,196.5C 136,236.5 176,276.5 216,316.5C 221.074,353.954 209.907,385.454 182.5,411C 159.791,428.264 134.124,435.431 105.5,432.5C 103.785,411.539 107.285,391.539 116,372.5C 117.636,366.27 115.469,362.103 109.5,360C 83.0839,357.535 59.7506,347.868 39.5,331C 33.5,325 27.5,319 21.5,313C 32.7402,299.747 45.7402,288.747 60.5,280C 66.0813,277.14 71.7479,274.474 77.5,272C 81.0349,269.293 82.2016,265.793 81,261.5C 64.813,240.277 56.1464,216.277 55,189.5C 54.5001,173.837 54.3334,158.17 54.5,142.5C 73.1696,142.333 91.8363,142.5 110.5,143C 133.674,145.276 154.34,153.61 172.5,168C 178.581,169.858 183.081,168.025 186,162.5C 190.452,150.926 196.452,140.259 204,130.5C 211.036,123.632 217.869,116.632 224.5,109.5 Z M 324.5,294.5 C 330.584,300.757 336.584,307.257 342.5,314C 335.523,329.935 328.357,345.768 321,361.5C 310.792,346.254 300.959,330.754 291.5,315C 303.875,310.158 314.875,303.325 324.5,294.5 Z"/></g>
<g><path style="opacity:0.93" fill="#000000" d="M 225.5,160.5 C 230.739,159.959 234.572,161.959 237,166.5C 237.259,198.21 230.259,228.21 216,256.5C 210.719,260.699 205.719,260.366 201,255.5C 199.627,253.305 199.294,250.971 200,248.5C 212.256,222.559 218.923,195.225 220,166.5C 221.021,163.65 222.854,161.65 225.5,160.5 Z"/></g>
<g><path style="opacity:0.928" fill="#000000" d="M 307.5,224.5 C 317.713,223.211 321.88,227.544 320,237.5C 309.031,248.912 296.197,257.746 281.5,264C 261.023,273.118 239.689,278.785 217.5,281C 212.845,278.103 211.345,273.937 213,268.5C 213.465,267.069 214.299,265.903 215.5,265C 241.471,259.899 266.138,251.233 289.5,239C 296.267,235.061 302.267,230.228 307.5,224.5 Z"/></g>
<g><path style="opacity:0.93" fill="#000000" d="M 158.5,287.5 C 170.793,286.927 174.46,292.093 169.5,303C 140.63,318.219 109.963,325.219 77.5,324C 72.1667,318.667 72.1667,313.333 77.5,308C 100.049,306.464 122.049,302.131 143.5,295C 148.84,292.997 153.84,290.497 158.5,287.5 Z"/></g>
<g><path style="opacity:0.927" fill="#000000" d="M 182.5,299.5 C 189.589,298.755 193.589,301.922 194.5,309C 189.447,335.827 180.613,361.327 168,385.5C 163.25,394.578 156.75,402.078 148.5,408C 139.983,408.816 136.149,404.983 137,396.5C 152.104,378.63 162.771,358.297 169,335.5C 171.824,325.205 174.49,314.871 177,304.5C 178.107,301.887 179.94,300.22 182.5,299.5 Z"/></g>
</svg>
