<?xml version="1.0" standalone="no"?>
<!DOCTYPE svg PUBLIC "-//W3C//DTD SVG 20010904//EN"
 "http://www.w3.org/TR/2001/REC-SVG-20010904/DTD/svg10.dtd">
<svg version="1.0" xmlns="http://www.w3.org/2000/svg"
 width="512.000000pt" height="512.000000pt" viewBox="0 0 512.000000 512.000000"
 preserveAspectRatio="xMidYMid meet">

<g transform="translate(0.000000,512.000000) scale(0.100000,-0.100000)"
fill="#000000" stroke="none">
<path d="M2850 5104 c-229 -49 -431 -246 -484 -474 -14 -56 -16 -228 -16
-1298 0 -1170 -1 -1233 -17 -1228 -97 29 -370 35 -509 11 -89 -16 -159 -38
-354 -113 -137 -53 -235 -72 -395 -79 -215 -9 -361 20 -608 121 -121 50 -232
76 -359 83 l-108 6 0 -425 0 -425 97 -7 c144 -10 231 -31 402 -98 225 -87 278
-99 468 -105 247 -8 331 7 588 107 179 70 269 90 435 97 208 9 349 -16 560
-99 227 -90 313 -108 519 -108 216 0 291 17 581 128 164 63 246 77 450 77 225
-1 297 -16 532 -111 140 -57 249 -83 381 -91 l107 -6 0 425 0 425 -97 7 c-144
10 -231 31 -402 98 -152 59 -282 98 -328 98 l-23 0 0 1208 0 1209 23 44 c13
24 43 58 66 74 39 27 50 30 120 30 66 0 83 -4 114 -25 21 -14 50 -43 65 -64
26 -38 27 -45 30 -183 l3 -143 215 0 214 0 0 138 c0 170 -17 251 -72 362 -106
211 -331 350 -568 350 -237 0 -465 -141 -569 -350 -66 -134 -71 -174 -71 -577
l0 -353 -535 0 -536 0 3 348 c3 333 4 349 25 387 41 77 105 115 193 115 58 0
111 -23 152 -67 48 -50 58 -90 58 -228 l0 -125 216 0 217 0 -6 158 c-6 173
-19 237 -68 335 -134 265 -421 403 -709 341z m990 -1904 l0 -210 -535 0 -535
0 0 210 0 210 535 0 535 0 0 -210z m0 -865 l0 -225 -27 -5 c-36 -8 -160 -52
-293 -103 -161 -62 -246 -77 -445 -77 -104 0 -196 5 -237 14 l-68 13 0 304 0
304 535 0 535 0 0 -225z"/>
<path d="M0 535 l0 -535 2560 0 2560 0 0 425 c0 333 -3 425 -12 425 -68 2
-232 23 -285 36 -36 9 -122 39 -192 66 -69 27 -163 60 -208 73 -117 34 -302
49 -444 36 -152 -15 -213 -30 -394 -101 -84 -33 -182 -67 -217 -75 -111 -26
-287 -37 -416 -25 -145 13 -220 32 -391 100 -74 29 -166 61 -205 71 -112 30
-295 42 -428 30 -151 -15 -212 -30 -393 -101 -181 -71 -242 -86 -394 -101
-136 -12 -320 1 -431 32 -39 11 -135 45 -213 75 -152 60 -270 88 -409 98 l-88
6 0 -535z"/>
</g>
</svg>
