<?xml version="1.0" encoding="UTF-8"?>
<!DOCTYPE svg PUBLIC "-//W3C//DTD SVG 1.1//EN" "http://www.w3.org/Graphics/SVG/1.1/DTD/svg11.dtd">
<svg xmlns="http://www.w3.org/2000/svg" version="1.1" width="512px" height="512px" style="shape-rendering:geometricPrecision; text-rendering:geometricPrecision; image-rendering:optimizeQuality; fill-rule:evenodd; clip-rule:evenodd" xmlns:xlink="http://www.w3.org/1999/xlink">
<g><path style="opacity:0.961" fill="#020100" d="M 209.5,-0.5 C 214.833,-0.5 220.167,-0.5 225.5,-0.5C 257.514,16.1216 276.347,42.4549 282,78.5C 290.422,70.7585 299.922,64.5918 310.5,60C 321.515,41.648 336.849,28.3146 356.5,20C 363.614,18.1092 367.947,20.7758 369.5,28C 369.138,29.2247 368.638,30.3914 368,31.5C 356.742,36.7663 346.575,43.5996 337.5,52C 357.968,52.4495 366.802,62.6161 364,82.5C 354.752,98.7021 340.919,104.869 322.5,101C 313.358,97.1829 307.858,90.3495 306,80.5C 298.817,85.0073 292.317,90.3406 286.5,96.5C 295.103,100.135 303.437,104.302 311.5,109C 319.247,114.076 326.413,119.909 333,126.5C 380.446,100.279 422.78,106.945 460,146.5C 482.432,173.367 497.432,204.033 505,238.5C 507.79,251.88 509.956,265.213 511.5,278.5C 511.5,294.167 511.5,309.833 511.5,325.5C 508.073,368.28 494.573,407.613 471,443.5C 457.44,462.724 439.94,477.224 418.5,487C 388.381,497.982 359.881,494.815 333,477.5C 315.271,495.281 294.104,506.614 269.5,511.5C 260.167,511.5 250.833,511.5 241.5,511.5C 216.896,506.614 195.729,495.281 178,477.5C 139.067,500.626 101.567,498.46 65.5,471C 45.8325,453.521 30.6659,432.688 20,408.5C 8.89599,381.752 2.06266,354.086 -0.5,325.5C -0.5,309.5 -0.5,293.5 -0.5,277.5C 2.98379,238.213 14.8171,201.547 35,167.5C 41.4526,157.751 48.9526,148.917 57.5,141C 60.4071,140.282 63.0738,140.782 65.5,142.5C 67.3471,145.594 67.8471,148.928 67,152.5C 37.4227,186.18 20.4227,225.513 16,270.5C 10.0209,322.966 19.0209,372.633 43,419.5C 54.7936,439.959 70.6269,456.459 90.5,469C 99.4965,474.165 109.163,476.999 119.5,477.5C 137.046,478.863 153.38,474.696 168.5,465C 164.438,459.693 160.771,454.193 157.5,448.5C 155.742,445.023 155.242,441.357 156,437.5C 158.412,434.208 161.579,433.041 165.5,434C 171.124,442.08 176.624,450.247 182,458.5C 193.958,472.798 208.458,483.632 225.5,491C 231.589,493.606 237.922,495.106 244.5,495.5C 276.765,498.376 303.432,487.376 324.5,462.5C 333.64,452.172 341.474,440.838 348,428.5C 350.559,425.651 353.726,424.817 357.5,426C 361.212,428.513 362.378,432.013 361,436.5C 355.456,446.426 349.289,455.926 342.5,465C 353.077,472.248 364.743,476.414 377.5,477.5C 392.536,479.127 406.869,476.293 420.5,469C 435.956,460.02 448.789,448.187 459,433.5C 481.322,399.199 493.655,361.533 496,320.5C 500.192,268.113 488.859,219.446 462,174.5C 451.787,158.62 438.62,145.787 422.5,136C 408.004,127.868 392.671,124.702 376.5,126.5C 363.965,127.678 352.632,132.012 342.5,139.5C 345.864,144.366 349.031,149.366 352,154.5C 353.833,163.333 350.333,166.833 341.5,165C 336.876,158.252 332.376,151.419 328,144.5C 326.961,143.29 325.794,142.29 324.5,141.5C 303.15,116.316 276.15,105.316 243.5,108.5C 219.196,113.407 199.03,125.407 183,144.5C 175.738,155.423 168.905,166.59 162.5,178C 153.667,179.833 150.167,176.333 152,167.5C 156.744,157.673 162.244,148.339 168.5,139.5C 151.575,128.003 132.908,123.836 112.5,127C 105.594,128.469 98.9275,130.635 92.5,133.5C 89.3132,132.973 86.9799,131.307 85.5,128.5C 83.6497,122.276 85.983,118.442 92.5,117C 122.554,106.319 151.054,109.486 178,126.5C 193.236,111.626 211.07,100.96 231.5,94.5C 227.576,85.1155 221.243,77.9488 212.5,73C 204.284,70.9469 196.284,68.2802 188.5,65C 185.193,62.2217 183.026,58.7217 182,54.5C 179.529,30.1089 188.695,11.7756 209.5,-0.5 Z M 333.5,68.5 C 337.182,68.3347 340.848,68.5014 344.5,69C 349.757,73.156 349.757,77.4894 344.5,82C 339.675,85.3866 334.341,86.72 328.5,86C 322.687,82.6832 321.02,77.8499 323.5,71.5C 327.048,70.8699 330.381,69.8699 333.5,68.5 Z"/></g>
<g><path style="opacity:1" fill="#94ec97" d="M 213.5,14.5 C 214.5,14.5 215.5,14.5 216.5,14.5C 217.026,25.4258 214.193,35.4258 208,44.5C 205.561,47.6118 202.561,49.9452 199,51.5C 198.228,51.3552 197.561,51.0219 197,50.5C 196.289,35.592 201.789,23.592 213.5,14.5 Z"/></g>
<g><path style="opacity:1" fill="#5ece71" d="M 266.5,86.5 C 266.5,88.5 266.5,90.5 266.5,92.5C 265.167,92.5 263.833,92.5 262.5,92.5C 257.167,92.5 251.833,92.5 246.5,92.5C 242.137,75.9649 232.137,64.1316 216.5,57C 224.921,46.9882 230.254,35.4882 232.5,22.5C 253.259,38.6775 264.592,60.0109 266.5,86.5 Z"/></g>
<g><path style="opacity:1" fill="#2b5e34" d="M 266.5,86.5 C 267.468,88.6074 267.802,90.9407 267.5,93.5C 265.585,93.7845 263.919,93.4511 262.5,92.5C 263.833,92.5 265.167,92.5 266.5,92.5C 266.5,90.5 266.5,88.5 266.5,86.5 Z"/></g>
<g><path style="opacity:1" fill="#f48e00" d="M 243.5,108.5 C 276.15,105.316 303.15,116.316 324.5,141.5C 318.406,146.058 312.073,150.391 305.5,154.5C 291.052,135.55 273.386,120.383 252.5,109C 249.518,108.502 246.518,108.335 243.5,108.5 Z"/></g>
<g><path style="opacity:1" fill="#fe9d16" d="M 243.5,108.5 C 246.518,108.335 249.518,108.502 252.5,109C 273.386,120.383 291.052,135.55 305.5,154.5C 312.073,150.391 318.406,146.058 324.5,141.5C 325.794,142.29 326.961,143.29 328,144.5C 332.376,151.419 336.876,158.252 341.5,165C 350.333,166.833 353.833,163.333 352,154.5C 349.031,149.366 345.864,144.366 342.5,139.5C 352.632,132.012 363.965,127.678 376.5,126.5C 382.619,127.891 388.285,130.391 393.5,134C 415.95,151.457 432.783,173.29 444,199.5C 464.758,251.708 469.424,305.375 458,360.5C 451.222,393.716 437.222,423.382 416,449.5C 409.431,456.739 402.265,463.239 394.5,469C 389.358,472.904 383.691,475.738 377.5,477.5C 364.743,476.414 353.077,472.248 342.5,465C 349.289,455.926 355.456,446.426 361,436.5C 362.378,432.013 361.212,428.513 357.5,426C 353.726,424.817 350.559,425.651 348,428.5C 341.474,440.838 333.64,452.172 324.5,462.5C 319.519,458.364 314.352,454.364 309,450.5C 292.879,468.807 274.045,483.64 252.5,495C 249.854,495.497 247.187,495.664 244.5,495.5C 237.922,495.106 231.589,493.606 225.5,491C 208.458,483.632 193.958,472.798 182,458.5C 176.624,450.247 171.124,442.08 165.5,434C 161.579,433.041 158.412,434.208 156,437.5C 155.242,441.357 155.742,445.023 157.5,448.5C 157.649,449.552 157.483,450.552 157,451.5C 145.218,461.299 132.718,469.966 119.5,477.5C 109.163,476.999 99.4965,474.165 90.5,469C 70.6269,456.459 54.7936,439.959 43,419.5C 19.0209,372.633 10.0209,322.966 16,270.5C 20.4227,225.513 37.4227,186.18 67,152.5C 67.8471,148.928 67.3471,145.594 65.5,142.5C 71.8901,137.444 78.5568,132.777 85.5,128.5C 86.9799,131.307 89.3132,132.973 92.5,133.5C 98.9275,130.635 105.594,128.469 112.5,127C 132.908,123.836 151.575,128.003 168.5,139.5C 162.244,148.339 156.744,157.673 152,167.5C 150.167,176.333 153.667,179.833 162.5,178C 168.905,166.59 175.738,155.423 183,144.5C 199.03,125.407 219.196,113.407 243.5,108.5 Z"/></g>
<g><path style="opacity:1" fill="#f48e00" d="M 376.5,126.5 C 392.671,124.702 408.004,127.868 422.5,136C 438.62,145.787 451.787,158.62 462,174.5C 488.859,219.446 500.192,268.113 496,320.5C 493.655,361.533 481.322,399.199 459,433.5C 448.789,448.187 435.956,460.02 420.5,469C 406.869,476.293 392.536,479.127 377.5,477.5C 383.691,475.738 389.358,472.904 394.5,469C 402.265,463.239 409.431,456.739 416,449.5C 437.222,423.382 451.222,393.716 458,360.5C 469.424,305.375 464.758,251.708 444,199.5C 432.783,173.29 415.95,151.457 393.5,134C 388.285,130.391 382.619,127.891 376.5,126.5 Z"/></g>
<g><path style="opacity:1" fill="#040200" d="M 133.5,196.5 C 137.131,196.16 140.464,196.994 143.5,199C 172.329,218.249 201.329,237.249 230.5,256C 232.677,257.497 234.01,259.497 234.5,262C 227.401,277.757 215.401,287.757 198.5,292C 169.844,298.742 147.011,290.242 130,266.5C 117.764,244.983 117.431,223.317 129,201.5C 130.059,199.341 131.559,197.674 133.5,196.5 Z"/></g>
<g><path style="opacity:1" fill="#050300" d="M 371.5,196.5 C 376.28,195.641 379.78,197.308 382,201.5C 396.283,230.636 392.116,256.803 369.5,280C 346.709,296.752 322.709,298.752 297.5,286C 287.956,280.129 280.956,272.129 276.5,262C 276.99,259.497 278.323,257.497 280.5,256C 311.009,236.304 341.342,216.47 371.5,196.5 Z"/></g>
<g><path style="opacity:1" fill="#fbc955" d="M 138.5,214.5 C 164.117,230.314 189.45,246.647 214.5,263.5C 215.521,264.002 215.688,264.668 215,265.5C 203.108,276.796 188.941,281.296 172.5,279C 154.611,274.778 142.778,263.945 137,246.5C 134.685,235.663 135.185,224.997 138.5,214.5 Z"/></g>
<g><path style="opacity:1" fill="#fbc955" d="M 370.5,214.5 C 372.993,216.818 374.493,219.818 375,223.5C 377.85,242.966 371.683,258.799 356.5,271C 334.874,283.916 314.707,282.083 296,265.5C 295.911,263.887 296.745,262.72 298.5,262C 322.947,246.697 346.947,230.863 370.5,214.5 Z"/></g>
<g><path style="opacity:1" fill="#070401" d="M 379.5,373.5 C 378.136,370.396 378.302,367.396 380,364.5C 392.248,355.098 402.081,343.764 409.5,330.5C 410.043,330.44 410.376,330.107 410.5,329.5C 397.851,328.501 385.184,328.168 372.5,328.5C 372.5,331.167 372.5,333.833 372.5,336.5C 371.517,342.97 368.184,347.803 362.5,351C 349.223,352.591 335.89,352.924 322.5,352C 316.082,349.089 312.082,344.256 310.5,337.5C 310.5,334.5 310.5,331.5 310.5,328.5C 272.5,328.5 234.5,328.5 196.5,328.5C 196.5,331.167 196.5,333.833 196.5,336.5C 195.163,344.67 190.497,349.837 182.5,352C 170.5,352.667 158.5,352.667 146.5,352C 139.485,349.122 135.485,343.956 134.5,336.5C 134.5,333.833 134.5,331.167 134.5,328.5C 122.814,328.168 111.148,328.501 99.5,329.5C 99.6236,330.107 99.9569,330.44 100.5,330.5C 109.164,346.627 121.164,359.794 136.5,370C 171.067,392.688 209.067,404.855 250.5,406.5C 247.066,392.541 251.733,382.708 264.5,377C 275.833,376.333 287.167,376.333 298.5,377C 308.539,380.557 313.539,387.724 313.5,398.5C 326.019,394.938 338.019,390.105 349.5,384C 353.327,383.024 356.66,383.857 359.5,386.5C 361.059,389.87 360.726,393.036 358.5,396C 341.739,404.976 324.072,411.476 305.5,415.5C 302.426,415.55 300.259,414.217 299,411.5C 298.792,405.449 298.292,399.449 297.5,393.5C 296.975,392.808 296.308,392.308 295.5,392C 286.167,391.333 276.833,391.333 267.5,392C 267,392.5 266.5,393 266,393.5C 265.667,401.167 265.333,408.833 265,416.5C 264.065,419.102 262.232,420.602 259.5,421C 204.288,421.487 155.288,404.487 112.5,370C 97.3861,356.556 86.7194,340.223 80.5,321C 81.1755,317.991 82.8421,315.657 85.5,314C 104.833,313.333 124.167,313.333 143.5,314C 145.286,314.785 146.786,315.951 148,317.5C 148.333,323.5 148.667,329.5 149,335.5C 149.5,336 150,336.5 150.5,337C 160.744,337.819 170.91,337.652 181,336.5C 181.333,330.5 181.667,324.5 182,318.5C 183.5,317 185,315.5 186.5,314C 230.833,313.333 275.167,313.333 319.5,314C 321.286,314.785 322.786,315.951 324,317.5C 324.333,323.5 324.667,329.5 325,335.5C 325.5,336 326,336.5 326.5,337C 336.744,337.819 346.91,337.652 357,336.5C 357.333,330.5 357.667,324.5 358,318.5C 359.5,317 361,315.5 362.5,314C 383.5,313.333 404.5,313.333 425.5,314C 429.328,316.136 430.828,319.303 430,323.5C 421.397,344.111 408.231,361.277 390.5,375C 386.461,377.158 382.794,376.658 379.5,373.5 Z"/></g>
<g><path style="opacity:1" fill="#9c7d35" d="M 134.5,336.5 C 133.532,334.393 133.198,332.059 133.5,329.5C 122.321,329.172 111.321,329.505 100.5,330.5C 99.9569,330.44 99.6236,330.107 99.5,329.5C 111.148,328.501 122.814,328.168 134.5,328.5C 134.5,331.167 134.5,333.833 134.5,336.5 Z"/></g>
<g><path style="opacity:1" fill="#a78639" d="M 310.5,337.5 C 309.527,335.052 309.194,332.385 309.5,329.5C 272.167,329.5 234.833,329.5 197.5,329.5C 197.802,332.059 197.468,334.393 196.5,336.5C 196.5,333.833 196.5,331.167 196.5,328.5C 234.5,328.5 272.5,328.5 310.5,328.5C 310.5,331.5 310.5,334.5 310.5,337.5 Z"/></g>
<g><path style="opacity:1" fill="#ac8a3b" d="M 409.5,330.5 C 397.678,329.505 385.678,329.172 373.5,329.5C 373.802,332.059 373.468,334.393 372.5,336.5C 372.5,333.833 372.5,331.167 372.5,328.5C 385.184,328.168 397.851,328.501 410.5,329.5C 410.376,330.107 410.043,330.44 409.5,330.5 Z"/></g>
<g><path style="opacity:1" fill="#fdca56" d="M 134.5,336.5 C 135.485,343.956 139.485,349.122 146.5,352C 158.5,352.667 170.5,352.667 182.5,352C 190.497,349.837 195.163,344.67 196.5,336.5C 197.468,334.393 197.802,332.059 197.5,329.5C 234.833,329.5 272.167,329.5 309.5,329.5C 309.194,332.385 309.527,335.052 310.5,337.5C 312.082,344.256 316.082,349.089 322.5,352C 335.89,352.924 349.223,352.591 362.5,351C 368.184,347.803 371.517,342.97 372.5,336.5C 373.468,334.393 373.802,332.059 373.5,329.5C 385.678,329.172 397.678,329.505 409.5,330.5C 402.081,343.764 392.248,355.098 380,364.5C 378.302,367.396 378.136,370.396 379.5,373.5C 373.524,378.826 366.857,383.159 359.5,386.5C 356.66,383.857 353.327,383.024 349.5,384C 338.019,390.105 326.019,394.938 313.5,398.5C 313.539,387.724 308.539,380.557 298.5,377C 287.167,376.333 275.833,376.333 264.5,377C 251.733,382.708 247.066,392.541 250.5,406.5C 209.067,404.855 171.067,392.688 136.5,370C 121.164,359.794 109.164,346.627 100.5,330.5C 111.321,329.505 122.321,329.172 133.5,329.5C 133.198,332.059 133.532,334.393 134.5,336.5 Z"/></g>
<g><path style="opacity:1" fill="#f08c00" d="M 157.5,448.5 C 160.771,454.193 164.438,459.693 168.5,465C 153.38,474.696 137.046,478.863 119.5,477.5C 132.718,469.966 145.218,461.299 157,451.5C 157.483,450.552 157.649,449.552 157.5,448.5 Z"/></g>
<g><path style="opacity:1" fill="#f48e00" d="M 324.5,462.5 C 303.432,487.376 276.765,498.376 244.5,495.5C 247.187,495.664 249.854,495.497 252.5,495C 274.045,483.64 292.879,468.807 309,450.5C 314.352,454.364 319.519,458.364 324.5,462.5 Z"/></g>
</svg>
