<?xml version="1.0" standalone="no"?>
<!DOCTYPE svg PUBLIC "-//W3C//DTD SVG 20010904//EN"
 "http://www.w3.org/TR/2001/REC-SVG-20010904/DTD/svg10.dtd">
<svg version="1.0" xmlns="http://www.w3.org/2000/svg"
 width="512.000000pt" height="512.000000pt" viewBox="0 0 512.000000 512.000000"
 preserveAspectRatio="xMidYMid meet">

<g transform="translate(0.000000,512.000000) scale(0.100000,-0.100000)"
fill="#000000" stroke="none">
<path d="M2755 4680 c-1012 -75 -1907 -745 -2310 -1730 -152 -369 -225 -748
-225 -1161 l0 -166 -57 -34 c-64 -38 -127 -113 -146 -174 -8 -29 -12 -139 -12
-385 0 -333 1 -347 22 -392 30 -66 104 -141 166 -169 l52 -24 1990 0 1990 0
46 23 c74 36 125 87 161 160 l33 67 0 340 c0 330 -1 342 -23 396 -25 62 -94
140 -152 169 l-36 19 -13 162 c-27 365 -137 696 -329 992 -80 123 -97 174 -96
298 1 143 59 286 156 385 68 70 75 72 149 25 35 -22 100 -52 144 -67 70 -25
95 -28 200 -28 103 0 132 4 201 27 198 66 355 223 421 421 23 70 27 98 27 201
0 104 -4 131 -28 202 -33 101 -107 214 -183 282 -68 60 -184 123 -273 147 -79
21 -233 24 -310 5 -84 -20 -208 -84 -280 -143 l-64 -54 -114 44 c-349 133
-734 189 -1107 162z m530 -235 c144 -22 322 -67 458 -116 108 -38 118 -44 112
-63 -32 -106 -38 -141 -38 -231 0 -113 19 -197 63 -286 l30 -58 -49 -40 c-65
-55 -152 -170 -191 -253 -17 -37 -41 -107 -53 -156 l-21 -89 -75 64 c-111 94
-290 211 -421 275 -144 71 -319 133 -325 115 -24 -73 -56 -190 -52 -193 3 -3
46 -21 96 -39 489 -182 895 -581 1082 -1065 72 -187 129 -460 129 -622 l0 -48
-1796 0 -1797 0 6 233 c3 138 12 275 22 337 92 589 340 1096 734 1503 418 432
935 686 1516 746 123 13 448 5 570 -14z m1277 10 c206 -43 350 -237 335 -450
-15 -219 -181 -385 -402 -402 -222 -17 -416 139 -457 367 -31 177 73 375 237
452 103 48 178 57 287 33z m-376 -3050 c60 -25 64 -47 64 -365 0 -301 -4 -331
-51 -364 -21 -15 -186 -16 -1967 -16 l-1944 0 -34 34 -34 34 0 307 c0 197 4
313 11 326 5 11 25 29 42 39 31 20 69 20 1955 20 1665 0 1927 -2 1958 -15z"/>
</g>
</svg>
