<?xml version="1.0" standalone="no"?>
<!DOCTYPE svg PUBLIC "-//W3C//DTD SVG 20010904//EN"
 "http://www.w3.org/TR/2001/REC-SVG-20010904/DTD/svg10.dtd">
<svg version="1.0" xmlns="http://www.w3.org/2000/svg"
 width="512.000000pt" height="512.000000pt" viewBox="0 0 512.000000 512.000000"
 preserveAspectRatio="xMidYMid meet">

<g transform="translate(0.000000,512.000000) scale(0.100000,-0.100000)"
fill="#000000" stroke="none">
<path d="M2263 3985 c-167 -37 -318 -161 -405 -330 -64 -126 -90 -202 -153
-462 -56 -228 -86 -313 -126 -349 -21 -19 -21 -19 -122 86 -185 194 -277 302
-287 339 -6 22 -7 95 -4 181 7 162 -2 217 -42 257 -18 18 -33 23 -56 21 -40
-4 -44 -17 -60 -212 l-12 -148 -33 38 c-18 22 -65 101 -105 178 -72 140 -121
206 -152 206 -9 0 -28 -11 -42 -26 -32 -31 -30 -45 37 -184 93 -195 264 -428
527 -722 73 -81 132 -149 132 -152 0 -2 -35 -19 -77 -36 -43 -18 -104 -45
-135 -61 -32 -16 -59 -29 -62 -29 -2 0 -23 24 -46 53 -63 79 -160 177 -176
177 -27 0 -44 -46 -51 -139 l-6 -92 -61 60 c-102 102 -133 81 -122 -83 3 -56
9 -113 12 -128 l6 -28 -55 34 c-103 61 -178 70 -184 20 -2 -10 19 -91 46 -179
l49 -160 -52 -25 c-28 -14 -74 -48 -103 -76 -125 -124 -87 -271 92 -359 74
-36 199 -70 389 -105 94 -17 184 -37 201 -44 26 -11 42 -34 94 -139 120 -243
242 -318 521 -318 140 -1 254 16 463 67 179 44 247 50 374 30 95 -14 151 -31
463 -141 422 -148 712 -96 813 147 37 89 28 187 -28 298 -31 62 -32 95 -2 115
40 26 174 55 373 80 301 39 463 77 600 140 208 95 211 236 8 313 l-73 27 65
123 c66 125 73 149 52 170 -19 19 -56 14 -145 -17 -46 -16 -83 -27 -83 -26 0
2 19 42 41 89 48 100 60 164 34 186 -14 12 -23 11 -61 -3 -41 -15 -170 -95
-235 -146 l-27 -21 -7 45 c-8 54 -40 152 -56 171 -20 24 -42 15 -96 -38 l-52
-51 -61 57 c-66 61 -141 103 -259 146 l-74 27 129 103 c284 228 645 552 683
614 38 61 23 106 -35 106 -65 0 -145 -47 -272 -160 l-77 -69 -5 250 c-5 228
-7 252 -23 264 -25 18 -71 2 -96 -33 -37 -53 -51 -131 -62 -347 -5 -115 -14
-224 -20 -242 -12 -38 -121 -144 -322 -312 l-147 -123 -26 17 c-56 37 -108
103 -154 200 -75 154 -77 143 25 201 94 52 133 92 142 146 4 27 0 41 -19 62
-30 36 -80 41 -213 23 l-100 -13 -27 57 c-90 197 -222 327 -389 386 -62 22
-95 27 -204 29 -87 3 -150 -1 -192 -11z m322 -80 c165 -42 286 -149 379 -333
15 -30 26 -55 24 -57 -2 -1 -48 -8 -103 -14 -152 -19 -210 -56 -230 -148 -9
-46 18 -133 52 -165 68 -62 121 -64 274 -7 62 24 114 38 118 33 5 -5 24 -46
44 -92 50 -119 94 -187 155 -243 58 -53 83 -63 302 -114 205 -48 355 -135 412
-241 52 -98 61 -241 19 -322 -94 -182 -449 -262 -1346 -302 -821 -37 -1360 19
-1591 166 -98 62 -134 117 -134 204 0 115 71 193 248 277 293 137 341 163 400
217 82 77 105 131 177 421 35 138 79 291 100 340 88 213 208 331 387 379 72
20 239 20 313 1z m-1631 -1294 c31 -37 56 -70 56 -73 0 -3 -17 -23 -37 -44
-20 -21 -50 -67 -66 -102 -26 -55 -29 -71 -25 -136 l3 -73 -90 -7 c-49 -3
-119 -13 -154 -21 -35 -9 -65 -14 -66 -13 -2 2 -18 53 -35 113 -18 61 -35 117
-38 125 -7 17 70 -26 137 -77 47 -36 88 -43 98 -17 3 9 -4 71 -17 139 -12 68
-20 129 -18 135 3 11 28 -18 112 -132 28 -39 40 -44 65 -29 12 8 14 36 12 145
-1 75 0 136 2 136 3 0 30 -31 61 -69z m3224 -68 c6 -27 13 -77 16 -112 9 -98
29 -103 113 -30 60 53 160 125 189 136 11 4 -8 -42 -56 -135 -61 -119 -71
-144 -60 -157 18 -22 32 -19 133 29 145 70 142 71 86 -37 l-48 -94 -83 13
c-46 7 -141 17 -211 23 -70 5 -130 11 -133 14 -3 2 0 24 5 48 15 65 12 145 -9
224 l-18 70 26 28 c14 15 29 27 33 27 4 0 12 -21 17 -47z"/>
<path d="M2605 3718 c-49 -26 -58 -69 -24 -112 51 -65 153 0 123 79 -6 15 -54
45 -71 45 -4 0 -17 -6 -28 -12z"/>
<path d="M2162 3497 c-12 -13 -22 -36 -22 -51 0 -29 39 -76 64 -76 28 0 64 22
75 47 16 36 14 51 -14 78 -31 32 -74 33 -103 2z"/>
<path d="M2017 3100 c-131 -154 -103 -325 51 -307 99 11 130 106 73 220 -17
34 -44 77 -59 96 l-28 33 -37 -42z"/>
<path d="M3044 2688 c-40 -49 -84 -147 -84 -191 0 -55 27 -94 76 -113 51 -19
97 -8 135 32 33 35 33 120 0 184 -27 51 -79 120 -91 120 -5 0 -21 -15 -36 -32z"/>
<path d="M1511 2423 c-74 -90 -104 -206 -65 -261 39 -56 131 -67 180 -21 31
29 47 81 39 122 -10 46 -62 140 -95 172 l-27 26 -32 -38z"/>
</g>
</svg>
