<?xml version="1.0" encoding="UTF-8"?>
<!DOCTYPE svg PUBLIC "-//W3C//DTD SVG 1.1//EN" "http://www.w3.org/Graphics/SVG/1.1/DTD/svg11.dtd">
<svg xmlns="http://www.w3.org/2000/svg" version="1.1" width="512px" height="512px" style="shape-rendering:geometricPrecision; text-rendering:geometricPrecision; image-rendering:optimizeQuality; fill-rule:evenodd; clip-rule:evenodd" xmlns:xlink="http://www.w3.org/1999/xlink">
<g><path style="opacity:0.984" fill="#f6c357" d="M 248.5,-0.5 C 253.167,-0.5 257.833,-0.5 262.5,-0.5C 269.827,2.42938 274.66,7.76272 277,15.5C 277.667,31.5 277.667,47.5 277,63.5C 271.394,76.7193 261.561,81.5526 247.5,78C 240.572,75.4064 236.072,70.5731 234,63.5C 233.333,47.5 233.333,31.5 234,15.5C 235.947,7.39321 240.78,2.05987 248.5,-0.5 Z"/></g>
<g><path style="opacity:0.983" fill="#f6c357" d="M 85.5,67.5 C 92.0088,67.1272 98.0088,68.6272 103.5,72C 114.363,82.5293 124.863,93.3626 135,104.5C 140.042,116.355 137.542,126.189 127.5,134C 120.002,138.166 112.336,138.5 104.5,135C 92.3333,124.167 80.8333,112.667 70,100.5C 64.4737,84.2265 69.6404,73.2265 85.5,67.5 Z"/></g>
<g><path style="opacity:0.985" fill="#f6c357" d="M 417.5,67.5 C 432.998,66.899 441.665,74.2324 443.5,89.5C 443.14,93.2728 442.307,96.9395 441,100.5C 430.167,112.667 418.667,124.167 406.5,135C 392.487,140.443 381.987,136.609 375,123.5C 372.877,117.054 373.211,110.72 376,104.5C 386.137,93.3626 396.637,82.5293 407.5,72C 410.703,69.9971 414.036,68.4971 417.5,67.5 Z"/></g>
<g><path style="opacity:0.998" fill="#fcd461" d="M 325.5,125.5 C 353.544,226.205 325.878,307.705 242.5,370C 230.269,378.534 217.269,385.868 203.5,392C 204.738,392.69 204.738,393.19 203.5,393.5C 154.345,373.834 123.512,338.168 111,286.5C 99.8882,214.735 125.388,160.569 187.5,124C 233.874,101.629 279.874,102.129 325.5,125.5 Z"/></g>
<g><path style="opacity:0.999" fill="#f6c358" d="M 325.5,125.5 C 361.109,144.662 384.943,173.662 397,212.5C 411.762,269.625 398.928,319.458 358.5,362C 312.922,402.375 261.255,412.875 203.5,393.5C 204.738,393.19 204.738,392.69 203.5,392C 217.269,385.868 230.269,378.534 242.5,370C 325.878,307.705 353.544,226.205 325.5,125.5 Z"/></g>
<g><path style="opacity:0.983" fill="#f6c357" d="M -0.5,262.5 C -0.5,257.833 -0.5,253.167 -0.5,248.5C 2.05987,240.78 7.39321,235.947 15.5,234C 31.5,233.333 47.5,233.333 63.5,234C 76.7193,239.606 81.5526,249.439 78,263.5C 75.4064,270.428 70.5731,274.928 63.5,277C 47.5,277.667 31.5,277.667 15.5,277C 7.76272,274.66 2.42938,269.827 -0.5,262.5 Z"/></g>
<g><path style="opacity:0.982" fill="#f6c358" d="M 511.5,248.5 C 511.5,253.167 511.5,257.833 511.5,262.5C 508.571,269.827 503.237,274.66 495.5,277C 479.5,277.667 463.5,277.667 447.5,277C 434.281,271.394 429.447,261.561 433,247.5C 435.594,240.572 440.427,236.072 447.5,234C 463.5,233.333 479.5,233.333 495.5,234C 503.237,236.34 508.571,241.173 511.5,248.5 Z"/></g>
<g><path style="opacity:0.984" fill="#f6c358" d="M 110.5,373.5 C 129.302,372.802 138.136,381.802 137,400.5C 136.333,402.5 135.667,404.5 135,406.5C 124.167,418.667 112.667,430.167 100.5,441C 86.48,446.382 75.98,442.548 69,429.5C 66.8289,423.038 67.1622,416.705 70,410.5C 80.1366,399.363 90.6366,388.529 101.5,378C 104.437,376.199 107.437,374.699 110.5,373.5 Z"/></g>
<g><path style="opacity:0.985" fill="#f6c357" d="M 390.5,373.5 C 397.43,372.655 403.763,374.155 409.5,378C 419.333,387.833 429.167,397.667 439,407.5C 445.509,418.254 444.676,428.421 436.5,438C 428.427,443.926 419.76,444.926 410.5,441C 399.363,430.863 388.529,420.363 378,409.5C 371.155,398.115 372.322,387.615 381.5,378C 384.592,376.454 387.592,374.954 390.5,373.5 Z"/></g>
<g><path style="opacity:0.983" fill="#f6c357" d="M 262.5,511.5 C 257.833,511.5 253.167,511.5 248.5,511.5C 241.173,508.571 236.34,503.237 234,495.5C 233.333,479.5 233.333,463.5 234,447.5C 239.606,434.281 249.439,429.447 263.5,433C 270.428,435.594 274.928,440.427 277,447.5C 277.667,463.5 277.667,479.5 277,495.5C 274.66,503.237 269.827,508.571 262.5,511.5 Z"/></g>
</svg>
